<svg xmlns="http://www.w3.org/2000/svg" height="1024" preserveAspectRatio="none" style="display:block" viewBox="99.639 163.252 1846.051 1723.609" width="1024"><path d="M1374 515.379c14.26 5.268 34.44 15.61 48.56 22.273a5721 5721 0 0 1 81.74 38.737 24656 24656 0 0 1 257.91 125.68l122.09 59.141c13.15 6.454 51.31 24.631 61.39 32.847.15 10.565-63.66 162.011-72.72 184.455l-220.08 543.878c-27.08 66.82-57.2 135.53-83.3 202.23-16.8-6.62-36.41-17.25-52.8-25.59l-62.95-31.49-191-96.5c-39.37-19.84-75.94-38.79-116.34-57.19-14.05 10.06-28.06 20.32-42.16 30.3-65.64 46.45-136.588 81.65-207.49 118.98 104.65 50.32 192.99 106.81 259.08 205.14-193.862 22.04-345.301 28.67-539.404-3.53-6.845-1.15-39.26-4-34.554-16.17 1.627-4.2 11.014-14.31 14.51-17.87 19.397-19.72 36.312-42.49 50.536-66.11-53.548 13.22-244.765 43.6-291.611 26.43-37.859-13.88-76.033-53.43-100.937-84.87-10.017-12.64-18.912-26.1-28.386-39.14-14.684-20.22-29.832-38.84-40.384-61.79-10.022-21.8-16.857-46.65-17.969-70.69-.451-9.74.328-19.65-.625-29.36-1.736-17.7-5.817-35.02-7.263-52.86-5.081-62.64 5.649-126.33 27.673-185.02 49.403-131.63 155.716-230.1 281.966-287.474-6.678-16.047-17.712-33.735-8.351-50.01-7.216-13.629-19.408-31.192-27.947-45.016-2.62.691-5.561 1.554-8.218 1.974-41.851 6.623-69.785-39.123-44.039-73.065a45.72 45.72 0 0 1 31.751-18.032c34.113-3.585 61.01 32.378 46.75 63.759-3.375 7.428-6.57 11.012-11.93 16.837 8.848 13.936 21.544 32.75 28.879 47.019 3.63-.346 8.538-.258 12.28-.302 10.897 7.013 21.821 23.018 31.73 33.599 194.197-53.04 413.414-19.189 550.973 138.091 18.96 21.68 34.15 43.83 50.58 67.4 12.15-25.66 27.05-69.51 37.77-97.53l64.84-166.595 110.5-282.414c12.85-33.157 26.82-66.871 38.95-100.152" fill="#2e2d33"/><path d="M1388.65 550.881c22.63 9.148 50.86 23.585 73.38 34.201l158.13 76.252A8931 8931 0 0 1 1829 764.932c26.93 13.724 56.77 28.083 83.01 42.628l-334.63 826.69c-7.02 16.55-15.87 36.1-21.61 52.86-77.27-36.11-156.63-78.82-233.18-117.32-48.57-24.42-102.98-49.69-150.51-75.27 13.52-11.66 30.92-29.62 33.34-48.91 8.77-69.93-22.13-157.2-48.82-220.94-3.66-8.74-12.49-27.13-16.8-33.84a7511 7511 0 0 1 74.42-193.504l100.65-258.247 46.44-117.26c9.08-22.981 19.35-47.756 27.34-70.938" fill="#fff"/><path d="M1385.71 847.663c40.07-.911 73.33 30.763 74.37 70.832 1.05 40.068-30.51 73.433-70.58 74.613-40.25 1.186-73.81-30.559-74.86-70.819-1.05-40.259 30.81-73.711 71.07-74.626" fill="#2e2d33"/><path d="M1382.32 862.384c32.14-2.765 60.38 21.164 62.93 53.317s-21.57 60.232-53.74 62.564c-31.87 2.311-59.62-21.53-62.15-53.378-2.52-31.849 21.13-59.765 52.96-62.503" fill="#fff"/><path d="M1427.76 896.585c3.35.187 4.15.374 6.34 2.539.8 2.775 1.29 3.261.03 6.314-4.07 9.82-51.94 45.977-59.38 48.922-6.04-3.593-9.31-12.658-12.34-19.109-2.77-6.248-7.08-13.754-2.78-20.101 9.78-1.406 15.27 14.351 18.35 21.327 16.96-13.147 33-26.77 49.78-39.892" fill="#d76161"/><path d="M1295.49 1019.13c18.04-.97 48.92 20.54 66.88 26.65 23.72 8.07 25.94 31.39 14.66 51.54-11.32 20.21-13.81 56.94-38.5 65.81-7.29.21-13.15.23-20.01-3.29-7.24-3.85-14.28-6.88-21.48-10.98-17.8-10.14-53.39-16.03-47.76-43.9 1.48-7.36 6.15-17.31 8.93-24.58 5.61-14.69 11.29-29.48 17.61-43.87 4.88-10.97 8.98-13.5 19.67-17.38" fill="#2e2d33"/><path d="M1298.61 1033.73c7.72.81 51.14 23.09 61.12 27.77 2.8 1.31 6.12 4.3 8.27 6.68 1.03 2.68 1 6.85-.11 9.9-7.88 21.63-17.39 45.73-27.99 66.13-.82 1.58-4.31 3.7-5.71 4.51-7.83-.49-62.3-27.53-68.75-33.77-1.72-3.05-.8-8.31.44-11.76 7.55-21.17 15.67-44.84 26.14-64.61.8-1.52 5.11-4 6.59-4.85" fill="#fff"/><path d="M1234.76 1193.12c6.42-.24 16.44 3.64 21.73 6.68 40.65 23.31 82.98 19.6 53.86 80.55-6.53 13.67-12.29 34.32-20.06 48.12-3.51 6.23-10.39 8.78-16.65 10.29-12.09.75-28.12-8.42-39.01-14.31-15.03-8.12-41.4-14.01-46.31-32.05-3.91-14.36 4.88-29.11 9.78-42.41 5.17-14.03 11.03-27.91 17.19-41.47 4.29-9.44 10.18-12.35 19.47-15.4" fill="#2e2d33"/><path d="M1233.71 1208.75c8.71.61 73.33 28.74 72.15 36.39-1.93 12.6-23.73 70.27-31.49 78.37-9.23.18-73.36-28.53-71.8-36.33 2.63-13.15 23.44-70.61 31.14-78.43" fill="#fff"/><path d="M1434.6 668.281c16.29 1.101 50.64 22 67.56 28.676 29.96 13.093 12.5 45.109 2.87 65.783-9.99 21.423-10.94 41.857-35.68 47.897-12.73-.048-58.4-24.807-72.32-31.414-27.2-15.449-1.78-52.361 5.79-72.435 7.21-19.103 11.35-35.446 31.78-38.507" fill="#2e2d33"/><path d="M1433.46 682.818c8.56 1.315 62.82 26.543 69.46 33.005 5.32 11.867-18.9 55.565-23.71 68.664-1.56 4.254-4.38 7.844-7.96 10.654-7.98.804-18.91-4.354-25.79-8.286-11.61-6.63-39.83-15.663-46.32-27.01.09-7.816 5.69-19.014 8.85-26.353 6.58-15.305 12.8-30.895 19.54-46.125.8-1.81 4.2-3.612 5.93-4.549" fill="#fff"/><path d="M1473.09 985.769c2.44.366 4.65.87 6.94 1.837 19.08 8.072 235.85 118.374 238.09 121.324 1.4 1.85 2.39 3.94 2 6.31-.65 4.02-4.08 6.11-7.2 8.13-8.42-.66-233.28-113.41-245.47-122.71-3.88-7.635-.06-10.209 5.64-14.891m-146.92 350.151c12.86 2.76 241.22 119.03 245.73 123.93 1.62 1.77 2.75 3.88 2.54 6.36-.36 4.35-4.02 7.08-7.15 9.6-7.64-2.7-16.11-7.4-23.36-11.14-70.07-36.25-141.06-70.81-211.29-106.76-10.76-5.51-22.07-11.9-6.47-21.99m17.83-51.27c.3 0 .6-.01.9-.01 2.77.01 5.01.31 7.57 1.4 20.03 8.5 243.93 119.91 247.42 124.81 1.06 1.5 1.4 2.88 1.27 4.65-.31 4.09-2.95 6.6-5.94 9.07-7.8.36-64.05-29.93-75.12-35.51l-93.55-46.66c-27.01-13.78-54.43-26.57-81.38-40.41-9.44-4.85-6.49-10.73-1.17-17.34m202.96-529.8c3.98-.188 6.1-.033 9.88 1.765 42.36 20.152 78.55 37.486 121.2 58.634 37.03 18.359 83.33 39.376 120.17 59.713 1.52.838 2.73 4.286 2.47 6.279-.6 4.745-2.87 6.613-6.26 9.549-6.26-.128-34.67-15.477-42.74-19.46l-87.64-42.953a3575 3575 0 0 1-84.68-41.153c-7.35-3.606-30.36-14.204-35.95-18.11-3.41-6.269-1.39-9.712 3.55-14.264m-133.55 353.95c4.02-.01 6.13.13 9.75 1.89 16.74 8.15 33.22 16.93 49.94 25.15l120.15 58.83 48.89 23.99c12.22 6 33.26 11.11 17.93 25.99-4.01 1.05-6.54.11-10.18-1.66-18.87-9.14-37.47-18.85-56.23-28.22l-102.36-50.36c-16.39-8.1-32.81-16.12-49.28-24.04-9.73-4.67-20.29-9.19-29.41-14.86-7.15-4.45-3.53-12.01.8-16.71m82.95-172.283c8.06 1.118 218.46 107.723 241.8 119.683 1.08.55 2.34 4.05 2.1 5.95-.63 4.75-3.08 7.11-6.38 10.19-9.76-.94-139.85-68.25-155.77-76.105l-60.05-29.727c-4.25-2.129-22.81-11.251-25.72-13.683a7.53 7.53 0 0 1-2.72-5.996c.12-4.499 3.71-7.484 6.74-10.312M1392.5 1159.63c.32.01.64-.01.96.02 7.64.76 137.45 66.14 139.6 69.77 1.15 1.93 1.65 4.07 1.11 6.28-.98 3.94-3.83 6.24-7 8.44-6.94-1.22-132.45-64.04-140.33-69.76-3.52-7.42.24-9.61 5.66-14.75M1533 805.933c7.98 1.435 83.98 39.675 87.04 44.198 1.8 6.778-2.49 10.866-8.12 13.633-21.52-10.02-64.52-29.996-85.97-43.785-5.07-3.26 1.66-11.143 7.05-14.046" fill="#2e2d33"/><path d="m1008.48 1073.41 1.54-.26c1.85 1.06 3.25 1.95 4.85 3.43 67.84 62.92 113.93 145.69 140.32 233.79 9.38 31.32 17.55 63.21 20.23 95.5-5.5 3.74-10.97 7.82-16.19 11.95-28.45 22.52-58.1 42.88-88.57 62.58a1732.5 1732.5 0 0 1-528.428 229.82 1014 1014 0 0 1-34.542 6.73c-32.058-64.67-60.812-140.72-88.643-207.78-9.15-22.04-32.82-81.85-37.155-102.21 6.753-15.95 22.143-39.88 33.448-53.77 100.369-123.32 261.114-208.41 412.825-248.54 61.469-16.26 118.745-23.49 180.315-31.24" fill="#fff"/><path d="M542.391 1279.31c22.203-1.26 41.968 5.52 60.544 17.51a188.82 188.82 0 0 1 80.585 117.72c10.089 46.82 1.484 108.06-53.802 119.38-72.933 6.98-136.488-81.35-145.19-145.83-6.262-46.4 3.617-101 57.863-108.78" fill="#2e2d33"/><path d="M538.353 1335.17c42.886 5.14 73.641 89.78 38.027 102.28-41.96-7.26-76.351-92.72-38.027-102.28" fill="#fff"/><path d="M908.546 1123.3c59.46-1.34 118.154 66.27 134.334 118.58 13.2 42.68 17.87 111.29-35 128.02-22.367 5.43-46.908-5.05-64.713-18.05-40.898-29.98-69.28-79.43-77.543-129.23-6.052-36.47-2.927-92.32 42.922-99.32" fill="#2e2d33"/><path d="M904.047 1178.88c36.806.14 67.775 79.28 41.21 97.36-35.257-1.24-69.853-77.69-41.21-97.36" fill="#fff"/><path d="M546.431 1571.71c22.579-2.53 42.926 13.74 45.434 36.32s-13.773 42.92-36.356 45.41c-22.561 2.49-42.873-13.77-45.378-36.33s13.742-42.88 36.3-45.4" fill="#d76161"/><path d="M929.755 1432.87c17.448.95 10.811 21.7 8.424 33.34-1.939 9.46-7.752 20.86-13.397 28.71a85.24 85.24 0 0 1-56.072 34.75c-24.828 3.96-45.04-3.11-64.933-17.48-6.428-5.38-11.385-9.54-7.201-18.41 7.773-6.27 15.325 3.85 22.355 8.37 42.365 27.23 99.41 2.28 104.192-48.93.695-7.45 1.102-15.62 6.632-20.35" fill="#2e2d33"/><path d="M1098.99 1299.9c27.46-.28 41.65 45.85 19.47 61.75-25.58 1.69-43.87-47.56-19.47-61.75" fill="#d76161"/><path d="m444.891 1023.85 1.075 1.01c3.069 21.44 15.913 30.78 36.07 35.75 31.565 7.78 62.1-.91 89.453-17.46 22.974 16.59 56.842 49.38 72.112 72.32-14.742 8.53-33.207 16.35-48.409 24.55-20.32 10.97-42.097 24.01-61.703 36.02-74.037 45.37-183.207 143.16-215.285 226.08 1.673 8.3 5.01 17.53 7.698 25.67 5.366 15.4 11.212 30.95 16.807 46.29-39.271-47.5-104.105-75.58-150.898-21.27-6.158-52 2.405-105.17 17.672-154.86 38.197-124.33 122.934-213.43 235.408-274.1" fill="#fff"/><path d="M349.201 1138.82c.902.17 1.8.35 2.695.55 18.138 4.16 1.644 20.19-4.46 26.97-46.584 51.81-78.101 119.07-87.635 188.1-1.285 9.31-.27 18.91-9.905 22.87-7.929-1.25-11.736-5.28-10.719-13.68 9.606-79.41 49.895-170.72 110.024-224.81m55.283-48.93c4.621-.01 7.428 1.31 11.132 3.82 5.796 10.76-13.407 21.05-20.981 26.43-10.839 2.2-15.924-8.96-8.163-16.24 5.479-5.13 11.96-9.52 18.012-14.01" fill="#2e2d33"/><path d="M956.051 1053.42c7.176-.72 18.223-.6 25.693-.74 2.85 1.77 5.886 3.97 8.672 5.89a878 878 0 0 0-101.263 13.49c-182.044 34.36-392.423 135.59-503.679 292.11-9.146 12.87-23.933 33.17-19.748 49.15 7.024 26.81 17.93 53.43 28.033 79.41a5456 5456 0 0 0 68.072 165.8c5.706 13.19 28.488 69.87 35.819 74.75 10.779 1.48 20.564-.58 31.111-2.62 83.942-16.23 164.98-44.53 243.904-76.67a1719.3 1719.3 0 0 0 405.495-229.16c-.1 7.39-.46 10.78-1.58 18.11-10.14 17.77-64.03 53.59-82.6 65.9-116.932 77.56-244.234 139.64-375.441 189.27-80.355 30.4-154.506 51.22-240.286 60.9-9.981-24.2-21.09-47.55-31.315-71.5a5022 5022 0 0 1-64.349-157.25c-16.532-42.1-32.858-83.71-46.139-127.01 12.927-27.63 33.004-57.48 53.309-80.49C518.833 1176.5 711.5 1085.12 903.22 1058.22c17.39-2.44 35.324-3.52 52.831-4.8" fill="#fff"/><path d="M924.904 1712.64c16.841 7.95 31.165 16.46 47.09 26.05 19.678 11.63 38.976 26.07 57.066 40.09 28.25 22.37 56.6 49.49 78.6 78.05-36.37 3.16-72.82 6.92-109.218 9.34-36.829 2.46-73.803 2.53-110.601 3.68-12.147.91-33.099.13-45.476-.28-23.98-.75-47.943-1.95-71.877-3.61-13.825-.95-39.431-2.12-52.376-4.44-28.414-3.58-62.859-7.63-90.758-13.23 3.767-5.04 7.568-10.06 11.402-15.05 2.744.13 5.492.19 8.24.17 15.939-.18 38.612-3.74 54.554-7.34 78.272-17.65 166.752-55.47 223.354-113.43" fill="#d76161"/><path d="M924.904 1712.64c16.841 7.95 31.165 16.46 47.09 26.05-54.714 44.26-94.895 67.68-161.941 89.78-26.055 8.59-67.645 22.02-91.941 33.05-28.414-3.58-62.859-7.63-90.758-13.23 3.767-5.04 7.568-10.06 11.402-15.05 2.744.13 5.492.19 8.24.17 15.939-.18 38.612-3.74 54.554-7.34 78.272-17.65 166.752-55.47 223.354-113.43m104.156 66.14c28.25 22.37 56.6 49.49 78.6 78.05-36.37 3.16-72.82 6.92-109.218 9.34-36.829 2.46-73.803 2.53-110.601 3.68 11.618-9.43 49.43-30.47 63.574-39.41 26.756-16.92 51.395-33.97 77.645-51.66M243.3 1441.2c75.064-3.69 124.721 89.66 132.458 153.3 5.452 44.85 2.507 90.44-52.036 97.53-125.428-.6-193.333-226.01-80.422-250.83" fill="#fff"/><path d="M236.814 1489.12c79.805-5.87 130.314 154.29 59.584 170.84-74.999 4.7-133.121-152.01-59.584-170.84" fill="#2e2d33"/><path d="M242.291 1506.25c56.651 2.92 96.873 125.91 49.961 137.15-55.418-4.94-101.3-125.38-49.961-137.15m422.755-546.817a517.04 517.04 0 0 1 296.371 76.277c-51.023 1.49-98.231 9.11-147.642 21.08-56.358 13.47-100.198 29.25-153.705 51.68-20.929-31.83-44.598-53.43-75.718-75.06 22.951-22.7 19.518-45.834-4.824-64.938 32.755-4.424 52.653-7.347 85.518-9.039m194.548 727.517c6.32.38 40.381 14.96 48.657 18.38-57.521 52.94-136.116 86-211.478 103.43-14.239 3.48-29.091 5.5-43.589 7.59 16.478-23.11 28.285-39.59 41.183-64.68 64.865-18.79 103.842-34.12 165.227-64.72m-463.296-74.17c3.036 3.65 17.866 40.83 20.642 47.38a4631 4631 0 0 0 43.265 100.06c-14.838.61-28.193 1.28-42.956 2.68l-18.103.79c-18.505-17.61-35.494-37.87-48.202-60.07 40.041-22.96 42.947-47.74 45.354-90.84" fill="#fff"/><path d="M541.469 977.255c12.255-1.069 31.96-1.117 37.83 12.633 10.04 23.522-18.033 41.992-36.887 48.882-22.848 8.35-45.793 10.5-68.448.3-19.362-13.61-11.207-26.34 3.639-38.73 2.673 5.42 6.646 15.82 10.326 19.8 14.553 15.77 61.648 5.62 55.55-21.101-1.621-7.103-9.505-12.976-9.379-19.283 2.57-2.567 2.848-1.803 7.369-2.501M410.904 814.36a27.748 27.748 0 0 1 32.528 35.678 27.75 27.75 0 0 1-20.874 18.573c-14.891 3.01-29.434-6.515-32.625-21.368-3.191-14.854 6.157-29.511 20.971-32.883" fill="#fff"/><path d="M478.906 940.709c2.445-.025 2.45.046 4.881.426 8.519 7.195 39.051 51.154 42.114 62.375-1.157 2.67-1.519 2.04-5.099 3.62-7.631 1.53-10.305 1.8-18.099 2.03-7.696-15.196-23.301-46.678-27.343-64.409-.192-.845 2.565-3.093 3.546-4.042M297.644 1707.35c15.779 2.89 20.225 2.83 36.374 1.66 12.428 20.82 23.543 34.87 39.221 52.99-14.843 3.6-67.178-42.55-75.595-54.65" fill="#fff"/><path d="M826.458 163.5c126.631-4.21 281.372 44.768 314.992 182.853a197.9 197.9 0 0 1-22.64 150.728c-46.72 75.877-138.125 112.356-220.688 132.779-17.143 4.241-34.266 7.625-51.428 11.638-11.621 32.259-23.448 64.592-35.879 96.537-3.013 7.742-10.853 31.879-14.825 37.677a21.43 21.43 0 0 1-13.718 8.958 19.9 19.9 0 0 1-15.366-3.545c-12.128-8.771-12.603-37.927-14.663-52.283-3.471-24.202-5.459-48.847-9.61-72.996-35.402 8.634-78.044 15.303-114.401 20.949-118.048 15.548-279.033 33.682-375.513-54.5-36.916-33.741-60.588-89.304-62.058-138.941-2.206-74.512 42.116-139.628 101.916-180.522 91.61-63.785 202.839-92.808 310.863-114.682 75.348-15.257 146.342-23.403 223.018-24.65" fill="#2e2d33"/><path d="M817.647 181.48c16.691-.159 32.78.063 49.458.781 108.586 4.672 229.055 53.398 257.595 169.781a178.4 178.4 0 0 1-20.84 135.552c-41.99 68.35-125.567 103.133-200.027 122.873-22.327 5.919-45.858 10.104-68.473 15.496-5.052 7.694-13.864 34.288-17.496 44.176l-25.547 68.225c-2.952 8.037-6.687 20.156-10.979 27.504-.909 1.555-1.39 1.116-3.618 1.391-9.685-7.824-12.202-118.862-22.37-127.907-2.334-2.076-4.834-2.237-7.821-2.095-14.752.7-31.025 5.778-45.545 8.789a1308 1308 0 0 1-64.75 11.732c-40.746 5.526-81.647 10.733-122.737 12.793-81.714 4.097-182.892.251-246.762-57.993-34.399-31.368-57.134-80.499-59.079-126.985-2.088-49.914 17.476-94.923 51.256-131.176C358.805 248.28 592.395 201.152 732.205 186.7c28.409-2.937 56.916-4.149 85.442-5.22" fill="#fff"/><path d="M815.788 242.945c1.091.081 1.033.051 2.312.299 9.866 1.911 65.999 37.93 69.938 45.772 1.647 3.281.294 5.455-1.069 8.64-6.248 14.601-16.741 28.802-25.081 42.322l-53.176 85.548-62.031 100.104c-10.31 16.74-20.693 34.011-31.26 50.63-1.843 2.898-3.701 3.877-6.736 5.037-8.771-.252-115.471-66.296-130.164-75.182-11.947-7.904-74.315-40.368-75.881-50.388-.354-2.266 1.235-5.447 2.222-7.383 7.66-15.039 19.943-29.182 29.646-43.137 4.413-6.347 8.225-13.878 13.352-19.597 1.872-2.088 4.186-4.083 6.929-4.878 2.981-.864 5.282-.127 7.958 1.089 14.079 6.394 27.67 16.152 40.92 24.166a8080 8080 0 0 0 76.436 45.619l88.242-140.552c13.145-20.55 26.63-41.944 40.344-62.165 1.905-2.809 4.132-4.368 7.099-5.944" fill="#2e2d33"/><path d="m819.64 263.556 49.316 31.076c-4.98 9.28-13.011 21.302-18.777 30.578l-33.367 54.056a15334 15334 0 0 1-113.535 182.005c-39.584-26.001-83.335-50.564-124.08-75.731-17.199-10.018-37.579-22.636-54.104-33.536 10.532-17.784 22.603-34.851 34.493-51.742 34.432 18.978 68.229 42.228 102.923 61.129 7.759 4.227 14.243 8.548 22.459 12.174 7.233-6.904 36.204-54.422 43.865-66.614a8110 8110 0 0 1 90.807-143.395" fill="#d76161"/><path d="M1507.31 209.17c22.5.056 44.45 41.808 57.3 60.323 19.11.844 49.42-4.646 65.23 5.947 29.69 19.891-11.89 54.023-24.87 71.237 5.78 12.835 12.56 25.244 18.86 37.838 5.02 10.053 10.8 20.591 6.59 32.141a22.62 22.62 0 0 1-12.22 12.926c-17.45 7.745-60.67-12.876-79.82-20.175-17.39 13.727-45.6 46.708-65.34 45.941a22.48 22.48 0 0 1-15.74-7.358c-3.25-3.628-6.26-10.361-6.37-15.053-.48-20.176 3.9-42.078 5.4-62.453-14.25-10.631-45.28-25.939-50.82-41.331-10.35-28.761 47.6-39.624 64.93-45.097a863 863 0 0 1 11.62-42.428c4.73-15.669 7.97-27.923 25.25-32.458" fill="#2e2d33"/><path d="M1505.91 226.313c2.04.05 5.31.239 6.83 1.554 14.15 12.288 27.43 43.38 41.25 54.621 10.17 8.27 52.19.677 64.94 6.724 2.71 1.289 2.82 3.167 3.3 5.447-3.37 14.356-33.45 36.982-34.9 50.651-1.4 13.304 33.41 55.171 24.57 68.167-10.33 4.728-58.35-17.951-73.55-22.749-18.99 4.391-47.42 44.551-63.61 46.224-15.27-5.307 2.18-54.735-.99-69.367-3.81-17.62-43.15-29.339-49.45-41.351-7.22-13.749 54.84-21.021 59.11-31.514 10.19-22.215 13.74-45.848 22.5-68.407" fill="#fff"/><path d="M1817.06 455.005c14.58.191 21.27 19.245 30.47 29.727l1.02 1.14c10.55.713 34.94-1.341 39.74 8.98-.44 12.589-14.01 23.482-19.34 34.608 5.84 22.787 20.07 53.586-21.56 36.734-4.9-1.983-9.9-4.031-14.79-6.069-10.47 5.267-22.99 16.713-33.81 18.607-16.04 2.807-11.17-31.861-10.66-40.26-7.28-6.395-29.24-20.57-27.19-31.012 7.48-8.547 25.43-10.318 35.89-15.208 6.55-13.147 7.42-31.186 20.23-37.247m-16.49 1103.735c1.16 7.26-3.25 63.7-3.66 75.91 19.3.88 60.05 5.02 78.95 8.1-25.76 6.92-47.18 15.46-73.69 21.34l16.6 79.19c-8.84-10.32-39.85-51.32-45.58-62.24-4.53 3.64-10.53 7.45-15.45 10.77-16.65 11.5-33.58 22.58-50.77 33.25 1.93-4.16 4.26-7.88 6.85-11.67 12.91-18.94 26.37-37.61 38.5-57.05-17.37-14.8-38.82-30.67-57.24-45.97 23.87 6.32 49.92 11.76 74.1 16.59 6.57-15.91 23.37-54.77 31.39-68.22M203.629 698.732c1.406 9.466-1.369 63.775-2.1 74.572 24.711 2.086 51.71 4.833 76.055 9.637-22.194 7.497-48.945 12.579-72.478 20.072 6.952 27.146 12.817 47.653 19.033 75.749-15.203-17.588-32.349-42.801-45.412-62.053-6.131 3.487-13.291 8.499-19.286 12.475-14.999 10.188-31.26 21.707-46.661 30.938 12.005-20.054 32.135-47.659 46.092-66.146-14.349-12.714-44.336-32.194-56.176-46.419a1376 1376 0 0 1 72.548 22.349c6.061-19.711 18.8-52.836 28.385-71.174" fill="#d76161"/><path d="M1042.08 737.356c9.17 1.15 11.61 14.234 14.63 22.181 7.06-.047 17.98-1.704 21.97 5.043-.51 6.961-7.13 11.093-12.58 15.82.68 6.953 5.16 20.918-1.75 24.45-6.92-.148-11.81-4.269-17.93-8.03-7.92.508-16.6 12.823-23.75 8.402-2.06-5.794 1.6-16.334 3.25-22.815-4.98-4.037-17.77-12.567-13.33-19.155 6.5-3.392 13.11-2.926 20.69-3.419 2.49-8.234 4.53-15 8.8-22.477M129.708 1014.81c3.339 3.33 4.072 13.13 4.749 18.01 7.38 1.49 11.04 2.5 18.182 4.9-5.777 3.45-10.468 6.15-16.468 9.16l1.04 20.16c-5.506-4.54-8.757-8.04-13.677-13.27l-1.643.09c-6.086 3.54-9.382 5.13-16.083 7.26 1.594-8.01 2.87-10.21 6.332-17.48-6.518-6.3-8.156-7.75-12.5-15.31l19.236 2.62c3.292-5.58 7.115-10.82 10.832-16.14M1336.49 1776.6c1.92 5.36 2.23 14.86 2.69 20.88 7.03.93 13.36 2.31 20.29 3.76-5.69 3.16-13.77 6.8-19.79 9.8 1.35 6.16 2.51 13.06 3.69 19.31-5.1-3.98-12.02-12.78-15.91-13.95l-17.33 8.01c3.02-7.02 6.13-12.1 10.02-18.7-5.81-5.24-8.96-9.11-13.4-15.41 6.72 1.43 13.23 3.24 19.86 5.03 3.33-7.53 4.9-12.1 9.88-18.73" fill="#2e2d33"/></svg>