<svg xmlns="http://www.w3.org/2000/svg" viewBox="0 0 29.978 29.978" xml:space="preserve" width="316" height="316">
  <g/>
  <path d="M24.492 28.489H5.486a3.996 3.996 0 0 1-3.997-3.997V5.486a3.996 3.996 0 0 1 3.997-3.997h19.016a3.996 3.996 0 0 1 3.997 3.997v19.016a4.01 4.01 0 0 1-4.007 3.987z" style="fill:#f5f5f5;stroke:#e5e5e5;stroke-width:.6317;stroke-miterlimit:10"/>
  <path d="M15.459 7.095 14.16 8.944c-.2.29-.54.47-.899.47H6.166V7.085c-.01.01 9.293.01 9.293.01m8.823 0L13.131 22.893H5.696L16.848 7.095ZM14.52 22.893l1.309-1.859c.2-.29.54-.47.899-.47h7.085v2.328z" style="fill:#2d2d2d"/>
</svg>
